<svg xmlns="http://www.w3.org/2000/svg" viewBox="0 0 32 32" fill="none">
  <rect width="32" height="32" rx="8" fill="url(#g)"/>
  <defs>
    <linearGradient id="g" x1="4" y1="4" x2="28" y2="28" gradientUnits="userSpaceOnUse">
      <stop stop-color="#1270C4"/>
      <stop offset="1" stop-color="#247373"/>
    </linearGradient>
  </defs>
  <path d="M9 10.2c0-2.35 2.85-3.65 5.4-2.1 2.05 1.25 3.6 4.35 3.6 7.4s-1.55 6.15-3.6 7.4c-2.55 1.55-5.4.25-5.4-2.1" stroke="#fff" stroke-width="2.15" stroke-linecap="round"/>
  <path d="M23 21.8c0 2.35-2.85 3.65-5.4 2.1-2.05-1.25-3.6-4.35-3.6-7.4s1.55-6.15 3.6-7.4c2.55-1.55 5.4-.25 5.4 2.1" stroke="#fff" stroke-width="2.15" stroke-linecap="round" opacity=".72"/>
  <circle cx="9" cy="10.2" r="2" fill="#fff"/>
  <circle cx="23" cy="21.8" r="2" fill="#fff"/>
</svg>
